<svg xmlns="http://www.w3.org/2000/svg" viewBox="0 0 241.539 256.592"><defs><style>.a,.b{fill:#fff;}.a{font-size:37px;font-family:OpenSansLight-Italic, Open Sans;font-style:italic;}</style></defs><g transform="translate(-67.296 -57.499)"><g transform="translate(10.134 70.526)"><g transform="translate(57.162 190.565)"><text class="a" transform="translate(183.539 42)"><tspan x="-57.469" y="0">Control</tspan></text><g transform="translate(0 13.47)"><path class="b" d="M210.638,2.1h-2.993a1.178,1.178,0,0,0-1.193,1.154V17.986c0,4.343-2.739,5.752-6.828,5.752h-1.076c-4.011,0-6.808-1.467-6.808-5.752V3.254A1.165,1.165,0,0,0,190.545,2.1h-3.013A1.188,1.188,0,0,0,186.3,3.254V18.123c0,6.984,4.167,10.682,12.032,10.682h1.506c7.884,0,12.051-3.7,12.051-10.682V3.254A1.205,1.205,0,0,0,210.638,2.1Z" transform="translate(-149.852 -1.689)"/><path class="b" d="M429.2,2H404.493A1.158,1.158,0,0,0,403.3,3.174V5.658a1.158,1.158,0,0,0,1.194,1.174h9.743V27.766A1.162,1.162,0,0,0,415.43,28.9h2.954a1.162,1.162,0,0,0,1.193-1.135V6.832h9.606a1.158,1.158,0,0,0,1.193-1.174V3.193A1.135,1.135,0,0,0,429.2,2Z" transform="translate(-324.398 -1.609)"/><path class="b" d="M566.45,0h-2.856A1.186,1.186,0,0,0,562.4,1.193V26.079a1.178,1.178,0,0,0,1.193,1.154h2.856a1.233,1.233,0,0,0,1.233-1.193V1.193A1.2,1.2,0,0,0,566.45,0Z" transform="translate(-452.372 0)"/><path class="b" d="M355.855,23.964h-8.647c-4.108,0-4.265-1.154-4.265-5.83V2.874A1.182,1.182,0,0,0,341.75,1.7h-2.817A1.191,1.191,0,0,0,337.7,2.874V21.968c0,4.461,2.6,6.789,8.823,6.789h9.312a1.044,1.044,0,0,0,1.037-1.037V25.059A1.019,1.019,0,0,0,355.855,23.964Z" transform="translate(-271.632 -1.367)"/><path class="b" d="M31.674,2.02H24.729a1.788,1.788,0,0,0-1.937,1.252L16.3,22.288,9.782,3.252A1.788,1.788,0,0,0,7.845,2H.9a.954.954,0,0,0-.9.978v25a.944.944,0,0,0,.939.959H4.3a.944.944,0,0,0,.939-.959V9.473c-.02-.47.333-.665.548-.215l6.671,17.353a1.6,1.6,0,0,0,1.624,1.135h4.363a1.622,1.622,0,0,0,1.643-1.135L26.764,9.258c.215-.45.567-.254.548.215V27.981a.944.944,0,0,0,.939.959h3.365a.944.944,0,0,0,.939-.959v-25A.921.921,0,0,0,31.674,2.02Z" transform="translate(0 -1.609)"/></g></g></g><g transform="translate(90.5 57.499)"><path class="b" d="M228.048,495.829H175.289a2.826,2.826,0,0,0,0,5.653h52.758a2.826,2.826,0,0,0,0-5.653Z" transform="translate(-112.168 -322.481)"/><path class="b" d="M164.87,101.748a14.115,14.115,0,0,0-3.357.4L146.389,76.743A42.4,42.4,0,0,0,106.651,2.7,55.617,55.617,0,0,0,33.916,55.584v7.537a17.921,17.921,0,0,0,17.9,17.9h52.239A42.594,42.594,0,0,0,141.6,79.745l14.786,24.841a14.119,14.119,0,0,0-5.646,11.293c0,.317.01.63.031.942H132.69l2.434-9.734a10.363,10.363,0,0,0-10.054-12.877H53.933a10.363,10.363,0,0,0-10.054,12.877l2.434,9.734H28.233q.031-.467.031-.942a14.132,14.132,0,1,0-16.958,13.848v24.779H7.275a6.6,6.6,0,0,0-6.506,7.679l2.41,14.454a2.826,2.826,0,0,0,5.576-.93L6.345,161.255a.942.942,0,0,1,.929-1.1H20.988a.942.942,0,0,1,.93,1.1l-2.41,14.454a2.827,2.827,0,0,0,2.323,3.252A2.777,2.777,0,0,0,22.3,179a2.827,2.827,0,0,0,2.785-2.362l2.41-14.455a6.6,6.6,0,0,0-6.506-7.678h-4.03V129.727a14.183,14.183,0,0,0,9.67-7.253h21.1L53.757,146.6a17.875,17.875,0,0,0,17.366,13.559h36.756A17.875,17.875,0,0,0,125.245,146.6l6.032-24.126h21.1a14.131,14.131,0,1,0,12.5-20.726ZM51.816,75.369A12.261,12.261,0,0,1,39.568,63.121V55.584A49.972,49.972,0,0,1,98.9,6.538,42.415,42.415,0,0,0,81.025,29.9a14.131,14.131,0,1,0,0,24.982A42.145,42.145,0,0,0,91.554,72.373a42.747,42.747,0,0,0,3.327,3ZM79.679,49.052a8.377,8.377,0,0,1-5.252,1.822,8.479,8.479,0,1,1,0-16.958,8.374,8.374,0,0,1,5.252,1.822A42.751,42.751,0,0,0,79.679,49.052ZM95.552,68.376a36.742,36.742,0,1,1,51.961,0A36.783,36.783,0,0,1,95.552,68.376Zm-81.42,55.982a8.479,8.479,0,1,1,8.479-8.479A8.489,8.489,0,0,1,14.132,124.358Zm115.507-18.642-2.776,11.105H97.038a2.826,2.826,0,1,0,0,5.653h28.411l-5.689,22.754a12.229,12.229,0,0,1-11.882,9.277H71.122a12.229,12.229,0,0,1-11.882-9.277l-9.878-39.512a4.71,4.71,0,0,1,4.569-5.853h71.137a4.711,4.711,0,0,1,4.57,5.853Zm35.231,18.642a8.495,8.495,0,0,1-7.977-5.6q-.017-.05-.036-.1a8.482,8.482,0,0,1,4.511-10.5l.08-.036a8.479,8.479,0,1,1,3.422,16.236Z"/><path class="b" d="M186.068,376.184a2.826,2.826,0,0,0-2.826,2.826v.377a2.826,2.826,0,1,0,5.653,0v-.377A2.825,2.825,0,0,0,186.068,376.184Z" transform="translate(-119.178 -244.666)"/><path class="b" d="M304.637,382.213a2.826,2.826,0,0,0,2.826-2.826v-.377a2.826,2.826,0,1,0-5.653,0v.377A2.826,2.826,0,0,0,304.637,382.213Z" transform="translate(-196.294 -244.666)"/><path class="b" d="M313.941,46.281A29.205,29.205,0,1,0,322.5,66.932,29.014,29.014,0,0,0,313.941,46.281Zm-4,37.3a23.55,23.55,0,1,1,6.9-16.654A23.394,23.394,0,0,1,309.943,83.586Z" transform="translate(-171.757 -24.537)"/><path class="b" d="M218.405,376.184a2.826,2.826,0,0,0-2.826,2.826v.377a2.826,2.826,0,1,0,5.653,0v-.377A2.826,2.826,0,0,0,218.405,376.184Z" transform="translate(-140.21 -244.666)"/><path class="b" d="M186.595,301.809h-7.537a6.6,6.6,0,0,0-6.595,6.595v7.537a6.6,6.6,0,0,0,6.595,6.595h7.537a6.6,6.6,0,0,0,6.595-6.595V308.4A6.6,6.6,0,0,0,186.595,301.809Zm.942,14.132a.943.943,0,0,1-.942.942h-7.537a.943.943,0,0,1-.942-.942V308.4a.943.943,0,0,1,.942-.942h7.537a.943.943,0,0,1,.942.942Z" transform="translate(-112.168 -196.293)"/></g></g></svg>