<svg xmlns="http://www.w3.org/2000/svg" viewBox="0 0 81.873 91.32"><defs><style>.a{fill:#c6a16f;}.b{fill:#896942;}.c{fill:#e8d8bf;}.d{fill:#ffd789;}</style></defs><g transform="translate(-0.5)"><path class="a" d="M132.914,17.656h34.639V55.27H132.914Zm0,0" transform="translate(-108.797 -14.507)"/><path class="b" d="M167.553,55.27H132.914a42.167,42.167,0,0,0,34.324-35.41l.315-2.2Zm0,0" transform="translate(-108.797 -14.507)"/><path class="c" d="M212.982,15.745l-4.724-4.724-4.723,4.724V0h9.447Zm0,0" transform="translate(-166.822)"/><path class="b" d="M212.363,114.758h6.3v3.149h-6.3Zm0,0" transform="translate(-174.076 -94.29)"/><g transform="translate(3.649 37.788)"><path class="a" d="M18.156,434.777h6.3v8.828h-6.3Zm0,0" transform="translate(-18.156 -395.019)"/><path class="a" d="M212.363,434.777h6.3v8.828h-6.3Zm0,0" transform="translate(-177.725 -395.019)"/><path class="a" d="M406.57,434.777h6.3v8.828h-6.3Zm0,0" transform="translate(-337.293 -395.019)"/><path class="a" d="M35.809,211.863h69.277v36.823H35.809Zm0,0" transform="translate(-32.66 -211.863)"/></g><path class="b" d="M70.447,248.687H35.809a42.586,42.586,0,0,0,34.447-35.544l.192-1.28Zm0,0" transform="translate(-29.011 -174.076)"/><path class="b" d="M264.654,248.687H230.016a40.366,40.366,0,0,0,34.566-36.071l.072-.752Zm0,0" transform="translate(-188.579 -174.076)"/><path class="c" d="M310.083,227.608l-4.723-4.723-4.724,4.723V211.863h9.447Zm0,0" transform="translate(-246.605 -174.076)"/><path class="c" d="M115.876,227.608l-4.723-4.723-4.724,4.723V211.863h9.447Zm0,0" transform="translate(-87.036 -174.076)"/><path class="b" d="M309.465,326.621h6.3v3.149h-6.3Zm0,0" transform="translate(-253.858 -268.365)"/><path class="b" d="M115.258,326.621h6.3v3.149h-6.3Zm0,0" transform="translate(-94.29 -268.365)"/><path class="d" d="M.5,476.687H82.373v6.3H.5Zm0,0" transform="translate(0 -391.666)"/><path class="d" d="M.5,406.07H82.373v6.3H.5Zm0,0" transform="translate(0 -333.644)"/></g></svg>